<?xml version="1.0" encoding="UTF-8"?>
<svg version="1.1" xmlns="http://www.w3.org/2000/svg" width="48" height="48">
<path d="M0 0 C6.15234375 0.5859375 6.15234375 0.5859375 8 1 C9.71466036 4.42932071 9.05404056 8.21716065 9 12 C12.3 12 15.6 12 19 12 C19 8.04 19 4.08 19 0 C20.65 0 22.3 0 24 0 C25 1 25 1 25.11352539 3.40844727 C25.10828857 4.45057373 25.10305176 5.4927002 25.09765625 6.56640625 C25.09443359 7.69111328 25.09121094 8.81582031 25.08789062 9.97460938 C25.07951172 11.15861328 25.07113281 12.34261719 25.0625 13.5625 C25.05798828 14.75037109 25.05347656 15.93824219 25.04882812 17.16210938 C25.03699675 20.10812226 25.02051287 23.05403681 25 26 C25.99 26 26.98 26 28 26 C28 26.99 28 27.98 28 29 C21.25 29.125 21.25 29.125 19 28 C19 24.04 19 20.08 19 16 C15.7 16 12.4 16 9 16 C9 20.29 9 24.58 9 29 C7.02 29 5.04 29 3 29 C3 20.75 3 12.5 3 4 C1.68 3.67 0.36 3.34 -1 3 C-0.67 2.01 -0.34 1.02 0 0 Z " fill="#000000" transform="translate(10,9)"/>
</svg>
